<svg width="14" height="20" viewBox="0 0 14 20" fill="none" xmlns="http://www.w3.org/2000/svg">
<circle cx="2.5" cy="7.5" r="2.5" fill="#0033FF"/>
<path d="M6 0.5C6 0.223858 6.22386 0 6.5 0H10C10.2761 0 10.5 0.223858 10.5 0.5V1.5V5C10.5 5.27614 10.7239 5.5 11 5.5H13.5C13.7761 5.5 14 5.72386 14 6V9C14 9.27614 13.7761 9.5 13.5 9.5H11C10.7239 9.5 10.5 9.72386 10.5 10V14V14.7929C10.5 14.9255 10.5527 15.0527 10.6464 15.1464L11 15.5L11.3536 15.8536C11.4473 15.9473 11.5745 16 11.7071 16H13.5C13.7761 16 14 16.2239 14 16.5V19.5C14 19.7761 13.7761 20 13.5 20H10.2071C10.0745 20 9.94732 19.9473 9.85355 19.8536L8 18L7.5 17.5L7 17L6.14645 16.1464C6.05268 16.0527 6 15.9255 6 15.7929V0.5Z" fill="white"/>
</svg>
